<svg width="76" height="76" viewBox="0 0 76 76" fill="none" xmlns="http://www.w3.org/2000/svg">
<rect width="76" height="76" fill="white"/>
<g clip-path="url(#clip0_318_85)">
<path d="M41.045 29.3612C40.0997 29.8322 39.6901 30.7116 39.6901 33.0984C39.6901 33.0984 40.1627 32.6273 40.919 32.3446C41.4704 32.1405 41.8643 31.8736 42.1479 31.6694C42.9672 31.057 43.0933 30.319 43.0933 29.0314C43.0775 29.0314 41.7856 28.9529 41.045 29.3612Z" fill="#FBBD71"/>
<path d="M35.2627 29.9109C34.4434 30.5861 34.2386 31.7481 34.2386 31.7481L31.5916 41.8605L29.4174 33.5852C29.2125 32.7059 28.8029 31.6224 28.1884 30.8687C27.4322 29.9109 25.8566 29.8481 25.6675 29.8481C25.5257 29.8481 23.9659 29.9109 23.1466 30.8687C22.5322 31.6224 22.1225 32.7059 21.9177 33.5852L19.8695 41.8605L17.2225 31.7481C17.2225 31.7481 17.0177 30.6646 16.1984 29.9109C14.9064 28.7489 13 29.0315 13 29.0315L18.0418 47.953C18.0418 47.953 19.6804 48.0943 20.4997 47.6861C21.5868 47.1365 22.1383 46.7439 22.7527 44.153C23.3672 41.8447 25.0058 35.1241 25.1318 34.653C25.1949 34.4489 25.3367 33.8365 25.7463 33.8365C26.1559 33.8365 26.2977 34.3861 26.3608 34.653C26.5026 35.1241 28.1254 41.8447 28.7399 44.153C29.4174 46.7282 29.89 47.1365 30.9929 47.6861C31.8122 48.0943 33.4508 47.953 33.4508 47.953L38.4611 29.0315C38.4611 29.0315 36.5547 28.7646 35.2627 29.9109Z" fill="black"/>
<path d="M43.0775 32.0777C43.0775 32.0777 42.7309 32.5488 42.0534 32.957C41.5807 33.224 41.1711 33.3653 40.6984 33.6322C39.8791 34.0405 39.6743 34.4488 39.6743 35.0612V35.2653V36.286V36.4901V47.8901C39.6743 47.8901 40.9663 48.0314 41.7856 47.6232C42.8727 47.0736 43.0775 46.5397 43.0775 44.2314V32.8314V32.0777Z" fill="black"/>
<path d="M55.6032 38.5314L62 29.0942C62 29.0942 59.353 28.6231 57.9823 29.8479C57.1 30.6016 56.2177 32.0149 56.2177 32.0149L53.9016 35.4066C53.7598 35.6107 53.6337 35.7521 53.4289 35.7521C53.2241 35.7521 53.0193 35.5479 52.9563 35.4066L50.6402 32.0149C50.6402 32.0149 49.6948 30.6645 48.8755 29.8479C47.5206 28.6231 44.8579 29.0942 44.8579 29.0942L51.0498 38.5157L44.7161 47.9372C44.7161 47.9372 47.5048 48.2826 48.8755 47.0578C49.7579 46.3041 50.5772 45.0165 50.5772 45.0165L52.8932 41.6248C53.035 41.4207 53.1611 41.2793 53.3659 41.2793C53.5707 41.2793 53.7756 41.4835 53.8386 41.6248L56.1546 45.0165C56.1546 45.0165 57.037 46.3041 57.8563 47.0578C59.2112 48.2826 61.937 47.9372 61.937 47.9372L55.6032 38.5314Z" fill="black"/>
</g>
<defs>
<clipPath id="clip0_318_85">
<rect width="49" height="19" fill="white" transform="translate(13 29)"/>
</clipPath>
</defs>
</svg>
